<svg width="72" height="72" viewBox="0 0 72 72" fill="none" xmlns="http://www.w3.org/2000/svg">
<circle opacity="0.1" cx="36" cy="36" r="36" fill="#1961CE"/>
<path d="M44.2 21.8H28.2C23.4 21.8 20.2 24.2 20.2 29.8V41C20.2 46.6 23.4 49 28.2 49H33.912C34.856 49 35.624 48.168 35.496 47.224C35.336 46.088 35.368 44.904 35.608 43.688C36.456 39.528 39.88 36.216 44.072 35.528C46.168 35.192 48.168 35.48 49.928 36.248C51 36.712 52.2 35.976 52.2 34.808V29.8C52.2 24.2 49 21.8 44.2 21.8ZM44.952 30.744L39.944 34.744C38.888 35.592 37.544 36.008 36.2 36.008C34.856 36.008 33.496 35.592 32.456 34.744L27.448 30.744C26.936 30.328 26.856 29.576 27.256 29.048C27.672 28.536 28.424 28.44 28.936 28.856L33.944 32.856C35.16 33.832 37.224 33.832 38.44 32.856L43.448 28.856C43.96 28.44 44.728 28.52 45.128 29.048C45.544 29.576 45.464 30.328 44.952 30.744Z" fill="#1961CE"/>
<path d="M45.8 37.8C41.384 37.8 37.8 41.368 37.8 45.8C37.8 50.216 41.384 53.8 45.8 53.8C50.232 53.8 53.8001 50.216 53.8001 45.8C53.8001 41.368 50.232 37.8 45.8 37.8ZM49.08 45.08L48.4881 45.656L45 49.16C44.84 49.304 44.536 49.464 44.312 49.496L42.744 49.72C42.184 49.8 41.784 49.4 41.864 48.84L42.088 47.272C42.12 47.048 42.2641 46.744 42.424 46.584L45.912 43.112L46.4881 42.52C46.8721 42.136 47.304 41.88 47.752 41.88C48.136 41.88 48.5681 42.056 49.0481 42.52C50.1201 43.56 49.784 44.376 49.08 45.08Z" fill="#1961CE"/>
</svg>
