<svg width="40" height="40" viewBox="0 0 40 40" fill="none" xmlns="http://www.w3.org/2000/svg">
<rect width="40" height="40" rx="8" fill="#0057FF"/>
<path d="M30 17.75C29.59 17.75 29.25 17.41 29.25 17V15C29.25 12.42 27.58 10.75 25 10.75H23C22.59 10.75 22.25 10.41 22.25 10C22.25 9.59 22.59 9.25 23 9.25H25C28.44 9.25 30.75 11.56 30.75 15V17C30.75 17.41 30.41 17.75 30 17.75Z" fill="white"/>
<path d="M10 17.75C9.59 17.75 9.25 17.41 9.25 17V15C9.25 11.56 11.56 9.25 15 9.25H17C17.41 9.25 17.75 9.59 17.75 10C17.75 10.41 17.41 10.75 17 10.75H15C12.42 10.75 10.75 12.42 10.75 15V17C10.75 17.41 10.41 17.75 10 17.75Z" fill="white"/>
<path d="M25 30.75H23C22.59 30.75 22.25 30.41 22.25 30C22.25 29.59 22.59 29.25 23 29.25H25C27.58 29.25 29.25 27.58 29.25 25V23C29.25 22.59 29.59 22.25 30 22.25C30.41 22.25 30.75 22.59 30.75 23V25C30.75 28.44 28.44 30.75 25 30.75Z" fill="white"/>
<path d="M17 30.75H15C11.56 30.75 9.25 28.44 9.25 25V23C9.25 22.59 9.59 22.25 10 22.25C10.41 22.25 10.75 22.59 10.75 23V25C10.75 27.58 12.42 29.25 15 29.25H17C17.41 29.25 17.75 29.59 17.75 30C17.75 30.41 17.41 30.75 17 30.75Z" fill="white"/>
<path d="M20.0013 14.1665C18.473 14.1665 17.2305 15.409 17.2305 16.9373C17.2305 18.4365 18.403 19.6498 19.9313 19.7023C19.978 19.6965 20.0246 19.6965 20.0596 19.7023C20.0713 19.7023 20.0771 19.7023 20.0888 19.7023C20.0946 19.7023 20.0946 19.7023 20.1005 19.7023C21.5938 19.6498 22.7663 18.4365 22.7721 16.9373C22.7721 15.409 21.5296 14.1665 20.0013 14.1665Z" fill="white"/>
<path d="M22.9645 21.2537C21.337 20.1687 18.6829 20.1687 17.0437 21.2537C16.3029 21.7495 15.8945 22.4204 15.8945 23.1379C15.8945 23.8554 16.3029 24.5204 17.0379 25.0104C17.8545 25.5587 18.9279 25.8329 20.0012 25.8329C21.0745 25.8329 22.1479 25.5587 22.9645 25.0104C23.6995 24.5145 24.1079 23.8495 24.1079 23.1262C24.102 22.4087 23.6995 21.7437 22.9645 21.2537Z" fill="white"/>
</svg>
