<svg width="100" height="100" viewBox="0 0 100 100" fill="none" xmlns="http://www.w3.org/2000/svg">
<rect width="100" height="100" rx="50" fill="#E6EEFF"/>
<path d="M70.7132 47.2692L67.7665 43.8459C67.2032 43.1959 66.7482 41.9826 66.7482 41.1159V37.4326C66.7482 35.1359 64.8632 33.2509 62.5665 33.2509H58.8832C58.0382 33.2509 56.8032 32.7959 56.1532 32.2326L52.7298 29.2859C51.2348 28.0076 48.7865 28.0076 47.2698 29.2859L43.8682 32.2542C43.2182 32.7959 41.9832 33.2509 41.1382 33.2509H37.3898C35.0932 33.2509 33.2082 35.1359 33.2082 37.4326V41.1376C33.2082 41.9826 32.7532 43.1959 32.2115 43.8459L29.2865 47.2909C28.0298 48.7859 28.0298 51.2126 29.2865 52.7076L32.2115 56.1526C32.7532 56.8026 33.2082 58.0159 33.2082 58.8609V62.5659C33.2082 64.8626 35.0932 66.7476 37.3898 66.7476H41.1382C41.9832 66.7476 43.2182 67.2026 43.8682 67.7659L47.2915 70.7126C48.7865 71.9909 51.2348 71.9909 52.7515 70.7126L56.1748 67.7659C56.8248 67.2026 58.0382 66.7476 58.9048 66.7476H62.5882C64.8848 66.7476 66.7698 64.8626 66.7698 62.5659V58.8826C66.7698 58.0376 67.2248 56.8026 67.7882 56.1526L70.7348 52.7292C71.9915 51.2342 71.9915 48.7642 70.7132 47.2692ZM59.0132 45.9042L48.5482 56.3692C48.2448 56.6726 47.8332 56.8459 47.3998 56.8459C46.9665 56.8459 46.5548 56.6726 46.2515 56.3692L41.0082 51.1259C40.3798 50.4976 40.3798 49.4576 41.0082 48.8292C41.6365 48.2009 42.6765 48.2009 43.3048 48.8292L47.3998 52.9242L56.7165 43.6076C57.3448 42.9792 58.3848 42.9792 59.0132 43.6076C59.6415 44.2359 59.6415 45.2759 59.0132 45.9042Z" fill="#0057FF"/>
</svg>
