<svg width="100" height="100" viewBox="0 0 100 100" fill="none" xmlns="http://www.w3.org/2000/svg">
<rect width="100" height="100" rx="50" fill="#EA7E00" fill-opacity="0.1"/>
<path d="M66.2717 36.6757L53.4017 29.244C51.3 28.0307 48.7 28.0307 46.5767 29.244L33.7284 36.6757C31.6267 37.889 30.3267 40.1423 30.3267 42.5907V57.4107C30.3267 59.8373 31.6267 62.0907 33.7284 63.3257L46.5984 70.7573C48.7 71.9707 51.3 71.9707 53.4234 70.7573L66.2934 63.3257C68.395 62.1123 69.695 59.859 69.695 57.4107V42.5907C69.6734 40.1423 68.3734 37.9107 66.2717 36.6757ZM48.375 40.7923C48.375 39.904 49.1117 39.1673 50 39.1673C50.8884 39.1673 51.625 39.904 51.625 40.7923V52.1673C51.625 53.0557 50.8884 53.7923 50 53.7923C49.1117 53.7923 48.375 53.0557 48.375 52.1673V40.7923ZM51.9934 60.0323C51.885 60.2923 51.7334 60.5307 51.5384 60.7473C51.1267 61.159 50.585 61.3757 50 61.3757C49.7184 61.3757 49.4367 61.3107 49.1767 61.2023C48.895 61.094 48.6784 60.9423 48.4617 60.7473C48.2667 60.5307 48.115 60.2923 47.985 60.0323C47.8767 59.7723 47.8334 59.4907 47.8334 59.209C47.8334 58.6457 48.05 58.0823 48.4617 57.6707C48.6784 57.4757 48.895 57.324 49.1767 57.2157C49.9784 56.869 50.9317 57.064 51.5384 57.6707C51.7334 57.8873 51.885 58.104 51.9934 58.3857C52.1017 58.6457 52.1667 58.9273 52.1667 59.209C52.1667 59.4907 52.1017 59.7723 51.9934 60.0323Z" fill="#E1A200"/>
</svg>
